Coordinates
version=1
nRows=8
nColumns=63
inDegrees=yes

Units are S.I. units (second, meters, Newtons, ...)
If the header above contains a line with 'inDegrees', this indicates whether rotational values are in degrees (yes) or radians (no).

endheader
time	pelvis_tilt	pelvis_list	pelvis_rotation	pelvis_tx	pelvis_ty	pelvis_tz	hip_flexion_r	hip_adduction_r	hip_rotation_r	knee_angle_r	knee_angle_r_beta	ankle_angle_r	subtalar_angle_r	mtp_angle_r	hip_flexion_l	hip_adduction_l	hip_rotation_l	knee_angle_l	knee_angle_l_beta	ankle_angle_l	subtalar_angle_l	mtp_angle_l	L5_S1_Flex_Ext	L5_S1_Lat_Bending	L5_S1_axial_rotation	L4_L5_Flex_Ext	L4_L5_Lat_Bending	L4_L5_axial_rotation	L3_L4_Flex_Ext	L3_L4_Lat_Bending	L3_L4_axial_rotation	L2_L3_Flex_Ext	L2_L3_Lat_Bending	L2_L3_axial_rotation	L1_L2_Flex_Ext	L1_L2_Lat_Bending	L1_L2_axial_rotation	L1_T12_Flex_Ext	L1_T12_Lat_Bending	L1_T12_axial_rotation	Abs_r3	Abs_r2	Abs_r1	Abs_t1	Abs_t2	neck_flexion	neck_bending	neck_rotation	arm_flex_r	arm_add_r	arm_rot_r	elbow_flex_r	pro_sup_r	wrist_flex_r	wrist_dev_r	arm_flex_l	arm_add_l	arm_rot_l	elbow_flex_l	pro_sup_l	wrist_flex_l	wrist_dev_l
3.766667	4.543373	-4.067423	103.561789	0.229133	0.892234	0.578914	1.950933	-0.371580	-19.029998	11.215898	0.195754	30.172152	11.338300	0.000000	2.463746	-3.248189	11.624221	5.131911	0.089569	28.680180	5.329209	0.000000	0.268591	0.858331	-2.263899	0.498800	1.141580	-2.405392	0.441268	2.086946	-2.405392	0.306972	2.086946	-1.980911	0.249413	1.750309	-1.839418	0.153473	1.329555	-1.697924	1.918517	9.709612	-12.591125	0.000000	0.000000	28.208686	-2.201076	9.482914	4.759553	-20.580425	58.420646	34.291438	88.907289	-18.348899	-0.343019	5.866801	-6.774531	43.772595	30.212394	77.266843	-8.807926	6.008286
3.783333	4.476933	-4.264666	103.747651	0.229117	0.892232	0.579206	2.223509	-0.520010	-19.353062	11.408647	0.199118	30.251797	11.421780	0.000000	2.888064	-3.092074	11.610473	5.512466	0.096211	28.703776	5.428987	0.000000	0.285246	0.844209	-2.256707	0.529730	1.122798	-2.397751	0.468630	2.052609	-2.397751	0.326007	2.052609	-1.974618	0.264879	1.721510	-1.833574	0.162989	1.307679	-1.692530	2.037481	9.549858	-12.551125	0.000000	0.000000	28.230964	-2.183752	9.410923	4.759892	-20.544167	58.492971	34.249643	88.899881	-18.385878	-0.329610	6.162603	-6.731079	43.554502	30.396655	78.449054	-8.649282	6.406760
3.800000	4.462150	-4.473183	103.908880	0.229142	0.892216	0.579675	2.527539	-0.618419	-19.641379	11.583678	0.202173	30.292415	11.491758	0.000000	3.342962	-2.986355	11.553122	5.896266	0.102909	28.722878	5.540229	0.000000	0.301975	0.836547	-2.240089	0.560797	1.112608	-2.380095	0.496114	2.033981	-2.380095	0.345127	2.033981	-1.960078	0.280414	1.705887	-1.820072	0.172548	1.295812	-1.680067	2.156975	9.463189	-12.458704	0.000000	0.000000	28.250564	-2.165210	9.384888	4.792537	-20.529192	58.647570	34.146986	88.882600	-18.506230	-0.369384	6.484897	-6.673097	43.386233	30.593601	79.538645	-8.476422	6.763160
3.816667	4.497009	-4.678739	104.095158	0.229155	0.892180	0.580328	2.840091	-0.660500	-19.899854	11.729363	0.204716	30.288540	11.479769	0.000000	3.811399	-2.936374	11.486140	6.266799	0.109376	28.733059	5.696596	0.000000	0.316244	0.835083	-2.225065	0.587297	1.110661	-2.364131	0.519558	2.030421	-2.364131	0.361436	2.030421	-1.946932	0.293664	1.702901	-1.807865	0.180702	1.293544	-1.668799	2.258902	9.446627	-12.375142	0.000000	0.000000	28.267511	-2.169755	9.362466	4.851168	-20.534838	58.809144	34.029620	88.881283	-18.663548	-0.367144	6.806334	-6.613126	43.268996	30.812188	80.448326	-8.327719	7.055721
3.833333	4.577336	-4.882411	104.221823	0.229246	0.892118	0.581108	3.174886	-0.652356	-20.057348	11.870175	0.207174	30.243720	11.405330	0.000000	4.265299	-2.940901	11.342721	6.605591	0.115289	28.730870	5.862089	0.000000	0.327325	0.839798	-2.199472	0.607875	1.116931	-2.336939	0.537762	2.041885	-2.336939	0.374100	2.041885	-1.924538	0.303954	1.712516	-1.787071	0.187033	1.300847	-1.649604	2.338049	9.499962	-12.232804	0.000000	0.000000	28.278968	-2.173814	9.369919	4.905545	-20.558380	58.897402	33.912090	88.865538	-18.904866	-0.420365	7.097952	-6.551316	43.224955	31.034276	81.083670	-8.186966	7.294079
3.850000	4.711517	-5.072155	104.289359	0.229427	0.892014	0.581996	3.514401	-0.573603	-20.081988	11.992115	0.209302	30.155002	11.228733	0.000000	4.693002	-3.017819	11.109263	6.915014	0.120690	28.744030	6.075981	0.000000	0.333824	0.851267	-2.159997	0.619944	1.132185	-2.294997	0.548439	2.069770	-2.294997	0.381527	2.069770	-1.889997	0.309989	1.735903	-1.754998	0.190747	1.318612	-1.619998	2.384468	9.629699	-12.013255	0.000000	0.000000	28.283296	-2.200609	9.347371	4.888579	-20.584394	58.696628	33.854371	88.889146	-19.128752	-0.515943	7.366197	-6.499152	43.374092	31.248591	81.316585	-8.074984	7.458641
3.866667	4.867215	-5.252686	104.247703	0.229775	0.891855	0.582989	3.873401	-0.457097	-19.926894	12.122232	0.211573	30.050645	10.955443	0.000000	5.084018	-3.135449	10.775547	7.188035	0.125455	28.763532	6.279940	0.000000	0.335100	0.865102	-2.103702	0.622315	1.150586	-2.235183	0.550536	2.103409	-2.235183	0.382986	2.103409	-1.840739	0.311174	1.764116	-1.709258	0.191476	1.340043	-1.577776	2.393588	9.786209	-11.700158	0.000000	0.000000	28.279851	-2.189325	9.321580	4.829388	-20.600117	58.259991	33.861704	88.798235	-19.282661	-0.664959	7.595447	-6.492411	43.750404	31.461386	81.115600	-8.009908	7.463248
3.883333	5.015269	-5.440337	104.058246	0.230329	0.891600	0.584063	4.283918	-0.354516	-19.795810	12.317397	0.214979	30.016302	10.927611	0.000000	5.434217	-3.266662	10.348463	7.402958	0.129206	28.784928	6.428163	0.000000	0.333557	0.876972	-2.022674	0.619449	1.166373	-2.149091	0.548001	2.132269	-2.149091	0.381222	2.132269	-1.769840	0.309741	1.788321	-1.643422	0.190594	1.358429	-1.517005	2.382564	9.920481	-11.249505	0.000000	0.000000	28.271591	-2.149051	9.233345	4.668283	-20.561249	57.335842	33.986710	88.662047	-19.139220	-0.748150	7.705110	-6.498345	43.920734	31.711569	81.230670	-8.002205	7.444364
